<svg xmlns="http://www.w3.org/2000/svg" viewBox="0 0 1200 300" width="1200" height="300" role="img" aria-label="rust-oracledb — pure-Rust async thin-mode Oracle Database driver">
  <defs>
    <linearGradient id="bg" x1="0" y1="0" x2="1" y2="1">
      <stop offset="0" stop-color="#0a0f1c"/>
      <stop offset="1" stop-color="#10203a"/>
    </linearGradient>
    <linearGradient id="accent" x1="0" y1="0" x2="1" y2="0">
      <stop offset="0" stop-color="#34d399"/>
      <stop offset="1" stop-color="#22d3ee"/>
    </linearGradient>
    <linearGradient id="shield" x1="0" y1="0" x2="0" y2="1">
      <stop offset="0" stop-color="#0e2a44"/>
      <stop offset="1" stop-color="#0a1830"/>
    </linearGradient>
    <radialGradient id="glow" cx="0.82" cy="0.42" r="0.6">
      <stop offset="0" stop-color="#22d3ee" stop-opacity="0.18"/>
      <stop offset="1" stop-color="#22d3ee" stop-opacity="0"/>
    </radialGradient>
  </defs>

  <rect width="1200" height="300" fill="url(#bg)"/>
  <rect width="1200" height="300" fill="url(#glow)"/>
  <rect x="0" y="0" width="1200" height="4" fill="url(#accent)"/>

  <!-- Wordmark -->
  <text x="80" y="138" font-family="ui-monospace, 'SF Mono', 'JetBrains Mono', Menlo, monospace" font-size="74" font-weight="700" fill="#e8f0ff">oracle<tspan fill="url(#accent)">db</tspan></text>
  <text x="82" y="184" font-family="system-ui, -apple-system, Segoe UI, Roboto, sans-serif" font-size="26" font-weight="500" fill="#9fb3d1">Pure-Rust async thin-mode Oracle Database driver &#183; no OCI, no Instant Client</text>

  <!-- Feature chips -->
  <g font-family="ui-monospace, monospace" font-size="16" fill="#bfe9e0">
    <g transform="translate(82,222)">
      <rect width="250" height="34" rx="17" fill="#0e2a44" stroke="#1d4e63"/>
      <text x="20" y="22">no-GIL concurrent decode</text>
    </g>
    <g transform="translate(344,222)">
      <rect width="246" height="34" rx="17" fill="#0e2a44" stroke="#1d4e63"/>
      <text x="20" y="22">#![forbid(unsafe_code)]</text>
    </g>
    <g transform="translate(602,222)">
      <rect width="214" height="34" rx="17" fill="#0e2a44" stroke="#1d4e63"/>
      <text x="20" y="22">4.26 MB static binary</text>
    </g>
  </g>

  <!-- Database-cylinder motif -->
  <g transform="translate(992,80)">
    <path d="M10 22 L10 120 A60 20 0 0 0 130 120 L130 22" fill="url(#shield)" stroke="url(#accent)" stroke-width="3"/>
    <ellipse cx="70" cy="22" rx="60" ry="20" fill="url(#shield)" stroke="url(#accent)" stroke-width="3"/>
    <path d="M10 56 A60 20 0 0 0 130 56" fill="none" stroke="url(#accent)" stroke-width="2.5" opacity="0.75"/>
    <path d="M10 88 A60 20 0 0 0 130 88" fill="none" stroke="url(#accent)" stroke-width="2.5" opacity="0.5"/>
  </g>
</svg>
